<?xml version="1.0" encoding="UTF-8"?>
<svg xmlns="http://www.w3.org/2000/svg" width="32" height="32" viewBox="0 0 200 225">
  <path d="M 45,88 C 40,69 28,57 40,39 C 48,24 63,17 100,17 C 137,17 152,24 160,39 C 172,57 160,69 155,88 L 45,88 z" fill="#00A8FF" stroke="#26334A" stroke-width="5" />
  
  <line x1="100" y1="17" x2="52" y2="88" stroke="#26334A" stroke-width="2.5" />
  <line x1="100" y1="17" x2="65" y2="88" stroke="#26334A" stroke-width="2.5" />
  <line x1="100" y1="17" x2="78" y2="88" stroke="#26334A" stroke-width="2.5" />
  <line x1="100" y1="17" x2="122" y2="88" stroke="#26334A" stroke-width="2.5" />
  <line x1="100" y1="17" x2="135" y2="88" stroke="#26334A" stroke-width="2.5" />
  <line x1="100" y1="17" x2="148" y2="88" stroke="#26334A" stroke-width="2.5" />

  <line x1="48" y1="88" x2="93" y2="139" stroke="#26334A" stroke-width="2.2" />
  <line x1="62" y1="88" x2="96" y2="139" stroke="#26334A" stroke-width="2.2" />
  <line x1="77" y1="88" x2="99" y2="139" stroke="#26334A" stroke-width="2.2" />
  <line x1="123" y1="88" x2="101" y2="139" stroke="#26334A" stroke-width="2.2" />
  <line x1="138" y1="88" x2="104" y2="139" stroke="#26334A" stroke-width="2.2" />
  <line x1="152" y1="88" x2="107" y2="139" stroke="#26334A" stroke-width="2.2" />

  <rect x="78.5" y="139" width="43" height="39" rx="3" fill="#00A8FF" stroke="#26334A" stroke-width="3.5" />

  <text x="100" y="158.5" text-anchor="middle" dominant-baseline="middle" fill="#FFFFFF" font-family="Arial Black, sans-serif" font-size="9" font-weight="900">$AINK</text>

  <circle cx="100" cy="158.5" r="41" fill="transparent" stroke="#00A8FF" stroke-width="6.5" />
  <line x1="133.5" y1="182" x2="155" y2="198" stroke="#00A8FF" stroke-width="7" stroke-linecap="round" />
</svg>
