<?xml version="1.0" standalone="no"?>
<!DOCTYPE svg PUBLIC "-//W3C//DTD SVG 20010904//EN"
 "http://www.w3.org/TR/2001/REC-SVG-20010904/DTD/svg10.dtd">
<svg version="1.0" xmlns="http://www.w3.org/2000/svg"
 width="676.000000pt" height="369.000000pt" viewBox="0 0 676.000000 369.000000"
 preserveAspectRatio="xMidYMid meet">

<g transform="translate(0.000000,369.000000) scale(0.100000,-0.100000)"
fill="#000000" stroke="none">
<path d="M3262 3093 c-29 -2 -51 -7 -48 -11 2 -4 -13 -8 -34 -8 -49 -2 -143
-36 -226 -82 -178 -99 -336 -317 -373 -517 -24 -128 -48 -92 309 -450 176
-176 320 -325 320 -330 0 -6 -37 -28 -83 -50 l-82 -40 -3 -177 -2 -176 140
-71 c77 -39 152 -71 168 -71 15 1 90 33 167 73 l140 72 3 155 c1 85 0 164 -2
176 -4 14 -32 33 -90 60 -47 21 -85 42 -86 46 0 5 423 438 646 660 11 11 -26
190 -54 261 -77 198 -254 365 -464 438 -78 27 -213 51 -268 47 -14 -1 -49 -3
-78 -5z m141 -37 c84 -35 154 -168 197 -375 26 -125 39 -261 25 -261 -3 0 -25
15 -49 34 -70 53 -128 71 -231 71 -101 0 -131 -9 -217 -67 l-58 -39 0 63 c0
126 38 303 85 397 14 27 25 53 25 58 0 16 84 103 115 118 37 18 66 19 108 1z
m-183 -10 c0 -2 -13 -20 -29 -40 -16 -20 -46 -71 -67 -114 -52 -108 -51 -104
-59 -140 -3 -18 -10 -30 -15 -27 -5 3 -14 -8 -22 -25 -7 -16 -16 -30 -21 -30
-8 0 -57 -102 -57 -119 0 -5 -5 -22 -12 -36 -11 -25 -14 -26 -77 -20 -68 6
-127 -5 -203 -39 -27 -11 -36 -12 -33 -4 2 7 6 32 9 56 12 92 120 278 209 359
44 40 122 96 167 118 76 40 210 78 210 61z m405 -37 c39 -16 82 -37 96 -46 15
-10 44 -30 65 -44 34 -23 103 -92 156 -157 42 -52 100 -177 113 -245 7 -40 13
-73 12 -74 -1 0 -19 7 -41 18 -54 26 -138 40 -205 32 -42 -4 -60 -2 -66 7 -6
9 -4 11 6 6 8 -4 6 -1 -4 7 -10 9 -18 18 -17 21 4 13 -43 121 -57 133 -8 6
-12 16 -8 22 3 6 0 11 -9 11 -8 0 -20 16 -26 38 -6 20 -19 52 -27 71 -8 18
-16 39 -17 45 -2 16 -55 118 -71 136 -7 8 -18 26 -25 38 -11 23 -11 24 22 17
18 -4 65 -20 103 -36z m-125 -543 c49 -25 130 -98 130 -117 0 -7 -39 -108
-177 -463 -55 -142 -55 -143 -105 -143 -43 -1 -45 0 -65 45 -28 62 -137 342
-180 460 -30 85 -32 96 -19 120 19 36 52 65 106 92 70 36 89 40 175 36 64 -2
91 -8 135 -30z m-556 -40 c59 -35 86 -72 128 -181 44 -111 141 -356 178 -450
28 -69 30 -85 7 -85 -11 0 -546 523 -621 606 -32 37 -27 58 25 95 81 57 200
64 283 15z m1053 6 c37 -19 83 -64 83 -81 0 -12 -628 -641 -639 -641 -20 0
-23 28 -7 57 14 25 60 142 173 438 64 167 103 216 194 244 51 16 148 7 196
-17z m-628 -721 c12 -8 12 -14 1 -40 -15 -38 -23 -39 -39 -5 -9 20 -9 30 0 40
13 16 19 17 38 5z m-95 -70 c27 -28 28 -51 3 -51 -7 0 -32 -11 -57 -24 l-45
-23 -38 19 c-21 10 -37 24 -35 29 4 11 115 76 134 78 5 0 23 -12 38 -28z m286
-21 c49 -25 50 -41 8 -59 -18 -8 -75 -34 -126 -58 -90 -42 -132 -49 -132 -20
0 7 -4 6 -10 -3 -6 -9 -10 -10 -10 -3 0 12 -37 29 -53 25 -14 -4 -2 21 14 29
86 46 229 109 247 109 12 0 41 -9 62 -20z m-440 -76 l40 -16 0 -59 c0 -56 1
-59 24 -59 13 0 27 -6 29 -12 3 -7 6 8 6 35 1 55 11 58 79 27 40 -18 42 -21
42 -65 0 -25 5 -45 10 -45 6 0 10 6 11 13 3 55 6 68 16 78 20 20 238 118 246
110 4 -4 6 -70 5 -146 l-3 -139 -125 -62 c-68 -34 -128 -60 -132 -58 -4 3 -8
43 -8 90 0 49 -4 84 -10 84 -6 0 -10 -37 -10 -90 0 -54 -4 -90 -10 -90 -6 0
-32 11 -58 25 -26 13 -58 29 -72 35 -14 6 -47 23 -75 38 l-50 28 -3 147 c-1
81 0 147 3 147 2 0 23 -7 45 -16z"/>
<path d="M3554 1388 c-17 -30 -19 -31 -22 -10 -2 12 -8 20 -13 17 -12 -8 -12
-105 1 -105 6 0 10 11 10 25 0 27 18 33 38 13 20 -20 26 0 8 27 -14 21 -15 29
-5 41 6 8 9 17 6 20 -3 3 -14 -9 -23 -28z"/>
<path d="M3118 1389 c-26 -15 -22 -35 14 -63 36 -28 32 -45 -7 -28 -15 7 -25
8 -25 2 0 -6 5 -10 10 -10 6 0 15 -11 20 -25 9 -24 10 -24 30 -8 28 24 25 45
-10 77 -33 29 -32 53 1 35 18 -9 19 -9 7 10 -15 24 -16 24 -40 10z"/>
<path d="M3460 1335 l0 -36 -30 23 c-39 29 -52 16 -44 -45 7 -50 24 -55 24 -6
0 34 10 37 35 9 10 -11 22 -17 26 -14 12 7 11 104 -1 104 -5 0 -10 -16 -10
-35z"/>
<path d="M3225 1306 c-21 -49 -19 -53 16 -53 19 0 37 -7 45 -18 8 -10 16 -17
18 -14 8 8 -39 112 -52 117 -7 2 -19 -12 -27 -32z m40 -26 c-5 -8 -11 -8 -17
-2 -6 6 -7 16 -3 22 5 8 11 8 17 2 6 -6 7 -16 3 -22z"/>
<path d="M2952 1775 c-15 -19 -44 -65 -62 -101 -37 -71 -51 -87 -44 -52 4 21
4 22 -5 3 -5 -11 -7 -31 -5 -45 4 -22 3 -21 -9 5 -8 17 -12 37 -9 45 3 8 2 12
-2 9 -15 -14 -21 -61 -21 -184 0 -121 2 -134 29 -195 75 -172 203 -283 380
-329 281 -74 551 63 664 336 34 83 36 94 36 198 1 77 -4 126 -17 165 -19 60
-43 98 -54 86 -4 -4 -3 -10 2 -14 13 -9 18 -35 6 -28 -5 4 -12 0 -14 -6 -3 -8
-6 -6 -6 5 -1 10 -6 15 -11 12 -6 -4 -9 -3 -8 2 4 15 -76 123 -91 123 -3 0
-12 -4 -19 -9 -11 -7 -7 -18 18 -52 91 -126 115 -280 64 -421 -15 -40 -37 -88
-49 -108 -37 -58 -121 -129 -193 -163 -63 -30 -73 -32 -182 -32 -112 0 -117 1
-193 37 -100 48 -168 116 -216 218 -35 73 -36 78 -36 195 0 111 2 124 29 180
15 33 39 74 52 92 48 63 17 89 -34 28z m-135 -217 c-3 -8 -6 -5 -6 6 -1 11 2
17 5 13 3 -3 4 -12 1 -19z"/>
<path d="M3890 1051 c0 -5 -21 -30 -46 -56 -43 -42 -46 -49 -40 -83 4 -29 21
-51 78 -106 40 -38 105 -100 144 -138 69 -65 74 -68 121 -68 42 0 53 5 81 33
40 41 49 84 27 130 -9 19 -76 94 -150 166 -127 125 -135 131 -174 131 -23 0
-41 -4 -41 -9z m64 -47 c-6 -3 10 -27 37 -55 49 -51 56 -63 41 -73 -6 -4 -33
17 -114 88 -24 21 -12 46 21 45 14 0 21 -3 15 -5z m121 -162 c-3 -3 -11 0 -18
7 -9 10 -8 11 6 5 10 -3 15 -9 12 -12z m65 -48 c0 -20 -17 -25 -30 -9 -7 8
-19 15 -27 15 -12 0 -13 3 -3 14 9 12 17 13 36 4 13 -6 24 -17 24 -24z m26
-29 c-4 -10 1 -15 14 -15 11 0 20 -5 20 -11 0 -5 4 -8 9 -5 4 3 6 -6 3 -19
l-4 -25 -28 23 c-35 27 -45 48 -28 59 18 11 21 10 14 -7z"/>
</g>
</svg>
